<mxfile host="app.diagrams.net" agent="Mozilla/5.0 (X11; Linux x86_64) AppleWebKit/537.36 (KHTML, like Gecko) Chrome/131.0.0.0 Safari/537.36" version="26.0.6">
  <diagram name="Page-1" id="wyvEPADK-sb8oglInLDm">
    <mxGraphModel dx="1214" dy="728" grid="1" gridSize="10" guides="1" tooltips="1" connect="1" arrows="1" fold="1" page="1" pageScale="1" pageWidth="850" pageHeight="1100" math="0" shadow="0">
      <root>
        <mxCell id="0" />
        <mxCell id="1" parent="0" />
        <mxCell id="D6_TP457iKL7m99HxI2h-1" value="&lt;h2&gt;&lt;font style=&quot;font-size: 16px;&quot;&gt;1. Vector Definition and Initialization:(done)&lt;br&gt;○ Create an empty vector to represent today&#39;s orders.&lt;br&gt;○ Use a fill constructor to create a vector of pre-prepared items.&lt;br&gt;○ Initialize a vector with a customer&#39;s order using braced initialization.&lt;br&gt;○ Copy the customer&#39;s order into the main order list.&lt;/font&gt;&lt;/h2&gt;" style="text;whiteSpace=wrap;html=1;fillColor=#ffe6cc;strokeColor=#d79b00;fontStyle=1" vertex="1" parent="1">
          <mxGeometry x="160" y="130" width="450" height="195" as="geometry" />
        </mxCell>
        <mxCell id="D6_TP457iKL7m99HxI2h-11" value="" style="edgeStyle=orthogonalEdgeStyle;rounded=0;orthogonalLoop=1;jettySize=auto;html=1;fontStyle=1" edge="1" parent="1" source="D6_TP457iKL7m99HxI2h-2" target="D6_TP457iKL7m99HxI2h-10">
          <mxGeometry relative="1" as="geometry" />
        </mxCell>
        <mxCell id="D6_TP457iKL7m99HxI2h-2" value="today&#39;s_orders" style="rounded=1;whiteSpace=wrap;html=1;fontStyle=1" vertex="1" parent="1">
          <mxGeometry x="680" y="80" width="100" height="40" as="geometry" />
        </mxCell>
        <mxCell id="D6_TP457iKL7m99HxI2h-5" value="" style="edgeStyle=orthogonalEdgeStyle;rounded=0;orthogonalLoop=1;jettySize=auto;html=1;fontStyle=1" edge="1" parent="1" source="D6_TP457iKL7m99HxI2h-3" target="D6_TP457iKL7m99HxI2h-4">
          <mxGeometry relative="1" as="geometry" />
        </mxCell>
        <mxCell id="D6_TP457iKL7m99HxI2h-3" value="prepared_items" style="rounded=1;whiteSpace=wrap;html=1;fontStyle=1" vertex="1" parent="1">
          <mxGeometry x="690" y="160" width="100" height="40" as="geometry" />
        </mxCell>
        <mxCell id="D6_TP457iKL7m99HxI2h-7" value="" style="edgeStyle=orthogonalEdgeStyle;rounded=0;orthogonalLoop=1;jettySize=auto;html=1;fontStyle=1" edge="1" parent="1" source="D6_TP457iKL7m99HxI2h-4" target="D6_TP457iKL7m99HxI2h-6">
          <mxGeometry relative="1" as="geometry" />
        </mxCell>
        <mxCell id="D6_TP457iKL7m99HxI2h-4" value="fill constructor&lt;br&gt;need value?&amp;nbsp;" style="ellipse;whiteSpace=wrap;html=1;rounded=1;fontStyle=1" vertex="1" parent="1">
          <mxGeometry x="880" y="145" width="90" height="70" as="geometry" />
        </mxCell>
        <mxCell id="D6_TP457iKL7m99HxI2h-6" value="value" style="whiteSpace=wrap;html=1;rounded=1;fillColor=#d5e8d4;strokeColor=#82b366;fontStyle=1" vertex="1" parent="1">
          <mxGeometry x="1020" y="155" width="100" height="50" as="geometry" />
        </mxCell>
        <mxCell id="D6_TP457iKL7m99HxI2h-13" value="" style="edgeStyle=orthogonalEdgeStyle;rounded=0;orthogonalLoop=1;jettySize=auto;html=1;fontStyle=1" edge="1" parent="1" source="D6_TP457iKL7m99HxI2h-10" target="D6_TP457iKL7m99HxI2h-12">
          <mxGeometry relative="1" as="geometry" />
        </mxCell>
        <mxCell id="D6_TP457iKL7m99HxI2h-10" value="empty" style="ellipse;whiteSpace=wrap;html=1;aspect=fixed;fontStyle=1" vertex="1" parent="1">
          <mxGeometry x="890" y="70" width="60" height="60" as="geometry" />
        </mxCell>
        <mxCell id="D6_TP457iKL7m99HxI2h-15" value="" style="edgeStyle=orthogonalEdgeStyle;rounded=0;orthogonalLoop=1;jettySize=auto;html=1;fontStyle=1" edge="1" parent="1" source="D6_TP457iKL7m99HxI2h-12" target="D6_TP457iKL7m99HxI2h-14">
          <mxGeometry relative="1" as="geometry" />
        </mxCell>
        <mxCell id="D6_TP457iKL7m99HxI2h-12" value="then use barced initializaiton" style="whiteSpace=wrap;html=1;fontStyle=1" vertex="1" parent="1">
          <mxGeometry x="1000" y="70" width="120" height="60" as="geometry" />
        </mxCell>
        <mxCell id="D6_TP457iKL7m99HxI2h-14" value="values" style="whiteSpace=wrap;html=1;fillColor=#d5e8d4;strokeColor=#82b366;fontStyle=1" vertex="1" parent="1">
          <mxGeometry x="1200" y="75" width="90" height="50" as="geometry" />
        </mxCell>
        <mxCell id="D6_TP457iKL7m99HxI2h-18" value="" style="edgeStyle=orthogonalEdgeStyle;rounded=0;orthogonalLoop=1;jettySize=auto;html=1;fontStyle=1" edge="1" parent="1" source="D6_TP457iKL7m99HxI2h-16" target="D6_TP457iKL7m99HxI2h-17">
          <mxGeometry relative="1" as="geometry" />
        </mxCell>
        <mxCell id="D6_TP457iKL7m99HxI2h-16" value="&lt;span style=&quot;color: rgb(0, 0, 0); font-family: Helvetica; font-size: 12px; font-style: normal; font-variant-ligatures: normal; font-variant-caps: normal; letter-spacing: normal; orphans: 2; text-align: left; text-indent: 0px; text-transform: none; widows: 2; word-spacing: 0px; -webkit-text-stroke-width: 0px; white-space: normal; background-color: rgb(251, 251, 251); text-decoration-thickness: initial; text-decoration-style: initial; text-decoration-color: initial; float: none; display: inline !important;&quot;&gt;○ Copy the customer&#39;s order into the main order list.&lt;/span&gt;" style="text;whiteSpace=wrap;html=1;fillColor=#6d8764;fontColor=#ffffff;strokeColor=#3A5431;fontStyle=1" vertex="1" parent="1">
          <mxGeometry x="710" y="325" width="310" height="40" as="geometry" />
        </mxCell>
        <mxCell id="D6_TP457iKL7m99HxI2h-17" value="not understanding&amp;nbsp;" style="whiteSpace=wrap;html=1;fontStyle=1" vertex="1" parent="1">
          <mxGeometry x="1195" y="250" width="85" height="40" as="geometry" />
        </mxCell>
        <mxCell id="D6_TP457iKL7m99HxI2h-21" value="" style="edgeStyle=orthogonalEdgeStyle;rounded=0;orthogonalLoop=1;jettySize=auto;html=1;fontStyle=1" edge="1" parent="1" source="D6_TP457iKL7m99HxI2h-19">
          <mxGeometry relative="1" as="geometry">
            <mxPoint x="905" y="525" as="targetPoint" />
          </mxGeometry>
        </mxCell>
        <mxCell id="D6_TP457iKL7m99HxI2h-19" value="Accessing elements:&#xa;○ Print the first, last, and third orders using appropriate vector functions." style="text;whiteSpace=wrap;html=1;fillColor=#ffe6cc;strokeColor=#d79b00;fontSize=16;fontStyle=1" vertex="1" parent="1">
          <mxGeometry x="195" y="480" width="460" height="90" as="geometry" />
        </mxCell>
        <mxCell id="D6_TP457iKL7m99HxI2h-22" value="&lt;h3&gt;print elements&lt;/h3&gt;" style="whiteSpace=wrap;html=1;fillColor=#d5e8d4;strokeColor=#82b366;fontStyle=1" vertex="1" parent="1">
          <mxGeometry x="910" y="495" width="120" height="60" as="geometry" />
        </mxCell>
        <mxCell id="D6_TP457iKL7m99HxI2h-23" value="&lt;font style=&quot;font-size: 17px;&quot;&gt;Modifying the vector:&lt;br&gt;○ Add new orders to the end of the list.&lt;/font&gt;&lt;div&gt;&lt;font style=&quot;font-size: 17px;&quot;&gt;&lt;br&gt;&lt;/font&gt;&lt;/div&gt;&lt;div&gt;&lt;font style=&quot;font-size: 17px;&quot;&gt;&lt;br&gt;&lt;/font&gt;&lt;/div&gt;&lt;div&gt;&lt;font style=&quot;font-size: 17px;&quot;&gt;&lt;br&gt;&lt;/font&gt;&lt;/div&gt;&lt;div&gt;&lt;font style=&quot;font-size: 17px;&quot;&gt;&lt;br&gt;○ Find and remove a specific order.&lt;br&gt;&lt;br&gt;&lt;/font&gt;&lt;/div&gt;&lt;div&gt;&lt;font style=&quot;font-size: 17px;&quot;&gt;&lt;br&gt;&lt;/font&gt;&lt;/div&gt;&lt;div&gt;&lt;font style=&quot;font-size: 17px;&quot;&gt;&lt;br&gt;&lt;/font&gt;&lt;/div&gt;&lt;div&gt;&lt;font style=&quot;font-size: 17px;&quot;&gt;&lt;br&gt;&lt;/font&gt;&lt;/div&gt;&lt;div&gt;&lt;font style=&quot;font-size: 17px;&quot;&gt;&lt;br&gt;&lt;/font&gt;&lt;/div&gt;&lt;div&gt;&lt;font style=&quot;font-size: 17px;&quot;&gt;&lt;br&gt;&lt;/font&gt;&lt;/div&gt;&lt;div&gt;&lt;font style=&quot;font-size: 17px;&quot;&gt;&lt;br&gt;&lt;/font&gt;&lt;/div&gt;&lt;div&gt;&lt;font style=&quot;font-size: 17px;&quot;&gt;&lt;br&gt;&lt;/font&gt;&lt;/div&gt;&lt;div&gt;&lt;font style=&quot;font-size: 17px;&quot;&gt;&lt;br&gt;&lt;/font&gt;&lt;/div&gt;&lt;div&gt;&lt;font style=&quot;font-size: 17px;&quot;&gt;&lt;br&gt;&lt;/font&gt;&lt;/div&gt;&lt;div&gt;&lt;font style=&quot;font-size: 17px;&quot;&gt;○ Insert pre-prepared items at the beginning of the order list.&lt;br&gt;&lt;br&gt;&lt;/font&gt;&lt;/div&gt;&lt;div&gt;&lt;font style=&quot;font-size: 17px;&quot;&gt;&lt;br&gt;&lt;/font&gt;&lt;/div&gt;&lt;div&gt;&lt;font style=&quot;font-size: 17px;&quot;&gt;&lt;br&gt;&lt;/font&gt;&lt;/div&gt;&lt;div&gt;&lt;font style=&quot;font-size: 17px;&quot;&gt;&lt;br&gt;&lt;/font&gt;&lt;/div&gt;&lt;div&gt;&lt;font style=&quot;font-size: 17px;&quot;&gt;&lt;br&gt;&lt;/font&gt;&lt;/div&gt;&lt;div&gt;&lt;font style=&quot;font-size: 17px;&quot;&gt;○ Add a large catering order, resizing the vector if necessary.&lt;br&gt;○ Optimize the vector&#39;s storage after completing some orders&lt;/font&gt;&lt;/div&gt;" style="text;whiteSpace=wrap;html=1;fillColor=#ffe6cc;strokeColor=#d79b00;fontStyle=1" vertex="1" parent="1">
          <mxGeometry x="180" y="620" width="485" height="620" as="geometry" />
        </mxCell>
        <mxCell id="D6_TP457iKL7m99HxI2h-27" value="" style="edgeStyle=orthogonalEdgeStyle;rounded=0;orthogonalLoop=1;jettySize=auto;html=1;fontStyle=1" edge="1" parent="1" source="D6_TP457iKL7m99HxI2h-24" target="D6_TP457iKL7m99HxI2h-26">
          <mxGeometry relative="1" as="geometry" />
        </mxCell>
        <mxCell id="D6_TP457iKL7m99HxI2h-24" value="&lt;font style=&quot;font-size: 15px;&quot;&gt;add element to the end of the list&amp;nbsp;&lt;/font&gt;" style="rounded=1;whiteSpace=wrap;html=1;fillColor=#d5e8d4;strokeColor=#82b366;fontStyle=1" vertex="1" parent="1">
          <mxGeometry x="690" y="640" width="170" height="60" as="geometry" />
        </mxCell>
        <mxCell id="D6_TP457iKL7m99HxI2h-35" style="edgeStyle=orthogonalEdgeStyle;rounded=0;orthogonalLoop=1;jettySize=auto;html=1;entryX=0;entryY=0.5;entryDx=0;entryDy=0;fontStyle=1" edge="1" parent="1" source="D6_TP457iKL7m99HxI2h-25" target="D6_TP457iKL7m99HxI2h-28">
          <mxGeometry relative="1" as="geometry" />
        </mxCell>
        <mxCell id="D6_TP457iKL7m99HxI2h-36" style="edgeStyle=orthogonalEdgeStyle;rounded=0;orthogonalLoop=1;jettySize=auto;html=1;fontStyle=1" edge="1" parent="1" source="D6_TP457iKL7m99HxI2h-25" target="D6_TP457iKL7m99HxI2h-31">
          <mxGeometry relative="1" as="geometry" />
        </mxCell>
        <mxCell id="D6_TP457iKL7m99HxI2h-25" value="&lt;font style=&quot;font-size: 15px;&quot;&gt;Find and remove element&lt;/font&gt;" style="rounded=1;whiteSpace=wrap;html=1;fillColor=#d5e8d4;strokeColor=#82b366;fontStyle=1" vertex="1" parent="1">
          <mxGeometry x="685" y="760" width="180" height="60" as="geometry" />
        </mxCell>
        <mxCell id="D6_TP457iKL7m99HxI2h-26" value="using Push_back);" style="whiteSpace=wrap;html=1;fillColor=#647687;strokeColor=#314354;fontColor=#ffffff;rounded=1;fontStyle=1" vertex="1" parent="1">
          <mxGeometry x="1035" y="640" width="120" height="60" as="geometry" />
        </mxCell>
        <mxCell id="D6_TP457iKL7m99HxI2h-28" value="using search opeations" style="whiteSpace=wrap;html=1;fillColor=#647687;strokeColor=#314354;fontColor=#ffffff;rounded=1;fontStyle=1" vertex="1" parent="1">
          <mxGeometry x="1030" y="710" width="120" height="60" as="geometry" />
        </mxCell>
        <mxCell id="D6_TP457iKL7m99HxI2h-31" value="using remove opeations" style="whiteSpace=wrap;html=1;fillColor=#647687;strokeColor=#314354;fontColor=#ffffff;rounded=1;fontStyle=1" vertex="1" parent="1">
          <mxGeometry x="1030" y="810" width="120" height="60" as="geometry" />
        </mxCell>
        <mxCell id="D6_TP457iKL7m99HxI2h-34" value="&lt;h3&gt;builtin&lt;/h3&gt;" style="text;html=1;align=center;verticalAlign=middle;whiteSpace=wrap;rounded=0;fillColor=#6d8764;fontColor=#ffffff;strokeColor=#3A5431;fontStyle=1" vertex="1" parent="1">
          <mxGeometry x="910" y="620" width="70" height="40" as="geometry" />
        </mxCell>
        <mxCell id="D6_TP457iKL7m99HxI2h-37" value="Algorithm" style="text;html=1;align=center;verticalAlign=middle;whiteSpace=wrap;rounded=0;fillColor=#6d8764;fontColor=#ffffff;strokeColor=#3A5431;fontStyle=1" vertex="1" parent="1">
          <mxGeometry x="880" y="750" width="60" height="30" as="geometry" />
        </mxCell>
        <mxCell id="D6_TP457iKL7m99HxI2h-39" style="edgeStyle=orthogonalEdgeStyle;rounded=0;orthogonalLoop=1;jettySize=auto;html=1;fontStyle=1" edge="1" parent="1" source="D6_TP457iKL7m99HxI2h-38">
          <mxGeometry relative="1" as="geometry">
            <mxPoint x="1050" y="990" as="targetPoint" />
          </mxGeometry>
        </mxCell>
        <mxCell id="D6_TP457iKL7m99HxI2h-38" value="&lt;font style=&quot;font-size: 15px;&quot;&gt;insert items at the begining&lt;/font&gt;" style="rounded=1;whiteSpace=wrap;html=1;fillColor=#d5e8d4;strokeColor=#82b366;fontStyle=1" vertex="1" parent="1">
          <mxGeometry x="685" y="960" width="180" height="60" as="geometry" />
        </mxCell>
        <mxCell id="D6_TP457iKL7m99HxI2h-40" value="using insert opeations" style="whiteSpace=wrap;html=1;fillColor=#647687;strokeColor=#314354;fontColor=#ffffff;rounded=1;fontStyle=1" vertex="1" parent="1">
          <mxGeometry x="1050" y="950" width="120" height="60" as="geometry" />
        </mxCell>
        <mxCell id="D6_TP457iKL7m99HxI2h-41" value="Algorithm" style="text;html=1;align=center;verticalAlign=middle;whiteSpace=wrap;rounded=0;fillColor=#6d8764;fontColor=#ffffff;strokeColor=#3A5431;fontStyle=1" vertex="1" parent="1">
          <mxGeometry x="920" y="950" width="60" height="30" as="geometry" />
        </mxCell>
        <mxCell id="D6_TP457iKL7m99HxI2h-42" style="edgeStyle=orthogonalEdgeStyle;rounded=0;orthogonalLoop=1;jettySize=auto;html=1;fontStyle=1" edge="1" source="D6_TP457iKL7m99HxI2h-43" parent="1">
          <mxGeometry relative="1" as="geometry">
            <mxPoint x="1050" y="1120" as="targetPoint" />
          </mxGeometry>
        </mxCell>
        <mxCell id="D6_TP457iKL7m99HxI2h-43" value="&lt;font style=&quot;font-size: 15px;&quot;&gt;optimize the vector&#39;s storage&lt;/font&gt;" style="rounded=1;whiteSpace=wrap;html=1;fillColor=#d5e8d4;strokeColor=#82b366;fontStyle=1" vertex="1" parent="1">
          <mxGeometry x="685" y="1090" width="180" height="60" as="geometry" />
        </mxCell>
        <mxCell id="D6_TP457iKL7m99HxI2h-44" value="&lt;h3&gt;builtin&lt;/h3&gt;" style="text;html=1;align=center;verticalAlign=middle;whiteSpace=wrap;rounded=0;fillColor=#6d8764;fontColor=#ffffff;strokeColor=#3A5431;fontStyle=1" vertex="1" parent="1">
          <mxGeometry x="915" y="1070" width="70" height="40" as="geometry" />
        </mxCell>
        <mxCell id="D6_TP457iKL7m99HxI2h-45" value="using resize();" style="whiteSpace=wrap;html=1;fillColor=#647687;strokeColor=#314354;fontColor=#ffffff;rounded=1;fontStyle=1" vertex="1" parent="1">
          <mxGeometry x="1060" y="1070" width="120" height="60" as="geometry" />
        </mxCell>
        <mxCell id="D6_TP457iKL7m99HxI2h-47" style="edgeStyle=orthogonalEdgeStyle;rounded=0;orthogonalLoop=1;jettySize=auto;html=1;fontStyle=1" edge="1" parent="1" source="D6_TP457iKL7m99HxI2h-46">
          <mxGeometry relative="1" as="geometry">
            <mxPoint x="880" y="1370" as="targetPoint" />
          </mxGeometry>
        </mxCell>
        <mxCell id="D6_TP457iKL7m99HxI2h-46" value="&lt;h2&gt;4. Vector Size Operations:&lt;br&gt;○ Print the current size, capacity, and maximum possible size of the vector.&lt;/h2&gt;" style="text;whiteSpace=wrap;html=1;fillColor=#ffe6cc;strokeColor=#d79b00;fontStyle=1" vertex="1" parent="1">
          <mxGeometry x="170" y="1320" width="460" height="100" as="geometry" />
        </mxCell>
        <mxCell id="D6_TP457iKL7m99HxI2h-48" value="&lt;h2&gt;builtin functions&lt;/h2&gt;" style="rounded=1;whiteSpace=wrap;html=1;fillColor=#d5e8d4;strokeColor=#82b366;fontStyle=1" vertex="1" parent="1">
          <mxGeometry x="910" y="1340" width="120" height="60" as="geometry" />
        </mxCell>
        <mxCell id="D6_TP457iKL7m99HxI2h-50" style="edgeStyle=orthogonalEdgeStyle;rounded=0;orthogonalLoop=1;jettySize=auto;html=1;fontStyle=1" edge="1" parent="1" source="D6_TP457iKL7m99HxI2h-49">
          <mxGeometry relative="1" as="geometry">
            <mxPoint x="880" y="1605" as="targetPoint" />
          </mxGeometry>
        </mxCell>
        <mxCell id="D6_TP457iKL7m99HxI2h-49" value="&lt;h2&gt;5. Max and Min Elements:&lt;br&gt;○ (Optional) Find and print the least and most complex items in the order list,&lt;br&gt;assuming you have a way to compare their complexity.&lt;/h2&gt;" style="text;whiteSpace=wrap;html=1;fillColor=#ffe6cc;strokeColor=#d79b00;fontStyle=1" vertex="1" parent="1">
          <mxGeometry x="180" y="1540" width="455" height="130" as="geometry" />
        </mxCell>
        <mxCell id="D6_TP457iKL7m99HxI2h-51" value="&lt;h2&gt;max, min operations&lt;/h2&gt;" style="rounded=1;whiteSpace=wrap;html=1;fillColor=#d5e8d4;strokeColor=#82b366;fontStyle=1" vertex="1" parent="1">
          <mxGeometry x="915" y="1575" width="120" height="60" as="geometry" />
        </mxCell>
        <mxCell id="D6_TP457iKL7m99HxI2h-52" value="Algorithm" style="whiteSpace=wrap;html=1;fillColor=#d5e8d4;strokeColor=#82b366;fontStyle=1" vertex="1" parent="1">
          <mxGeometry x="700" y="1560" width="100" height="40" as="geometry" />
        </mxCell>
        <mxCell id="D6_TP457iKL7m99HxI2h-53" value="&lt;h2&gt;6. Iterators:&lt;br&gt;○ Iterate through the orders using normal, reverse, const, and auto iterators&lt;/h2&gt;" style="text;whiteSpace=wrap;html=1;fillColor=#ffe6cc;strokeColor=#d79b00;fontStyle=1" vertex="1" parent="1">
          <mxGeometry x="180" y="1780" width="430" height="120" as="geometry" />
        </mxCell>
        <mxCell id="D6_TP457iKL7m99HxI2h-55" style="edgeStyle=orthogonalEdgeStyle;rounded=0;orthogonalLoop=1;jettySize=auto;html=1;fontStyle=1" edge="1" parent="1" source="D6_TP457iKL7m99HxI2h-54">
          <mxGeometry relative="1" as="geometry">
            <mxPoint x="890" y="2075" as="targetPoint" />
          </mxGeometry>
        </mxCell>
        <mxCell id="D6_TP457iKL7m99HxI2h-54" value="&lt;h2&gt;7. Clearing the vector:&lt;br&gt;○ Clear all orders at the end of the day.&lt;br&gt;○ Check if the vector is empty.&lt;/h2&gt;" style="text;whiteSpace=wrap;html=1;fillColor=#ffe6cc;strokeColor=#d79b00;fontStyle=1" vertex="1" parent="1">
          <mxGeometry x="175" y="2030" width="450" height="90" as="geometry" />
        </mxCell>
        <mxCell id="D6_TP457iKL7m99HxI2h-56" value="&lt;h2&gt;builtin functions&lt;/h2&gt;" style="rounded=1;whiteSpace=wrap;html=1;fillColor=#d5e8d4;strokeColor=#82b366;fontStyle=1" vertex="1" parent="1">
          <mxGeometry x="920" y="2030" width="120" height="60" as="geometry" />
        </mxCell>
        <mxCell id="D6_TP457iKL7m99HxI2h-57" value="" style="verticalLabelPosition=bottom;verticalAlign=top;html=1;shape=mxgraph.basic.tick;fillColor=#d5e8d4;strokeColor=#82b366;rotation=30;" vertex="1" parent="1">
          <mxGeometry x="551.16" y="132.99" width="50" height="45" as="geometry" />
        </mxCell>
        <mxCell id="D6_TP457iKL7m99HxI2h-58" value="" style="verticalLabelPosition=bottom;verticalAlign=top;html=1;shape=mxgraph.basic.tick;fillColor=#d5e8d4;strokeColor=#82b366;rotation=30;" vertex="1" parent="1">
          <mxGeometry x="560" y="460" width="50" height="45" as="geometry" />
        </mxCell>
        <mxCell id="D6_TP457iKL7m99HxI2h-59" value="" style="verticalLabelPosition=bottom;verticalAlign=top;html=1;shape=mxgraph.basic.tick;fillColor=#d5e8d4;strokeColor=#82b366;rotation=30;" vertex="1" parent="1">
          <mxGeometry x="560" y="615" width="50" height="45" as="geometry" />
        </mxCell>
        <mxCell id="D6_TP457iKL7m99HxI2h-61" value="" style="verticalLabelPosition=bottom;verticalAlign=top;html=1;shape=mxgraph.basic.tick;fillColor=#d5e8d4;strokeColor=#82b366;rotation=30;" vertex="1" parent="1">
          <mxGeometry x="541.16" y="1300" width="70" height="80" as="geometry" />
        </mxCell>
      </root>
    </mxGraphModel>
  </diagram>
</mxfile>
